<?xml version="1.0" encoding="UTF-8"?>
<svg version="1.1" xmlns="http://www.w3.org/2000/svg" width="512" height="512">
<path d="M0 0 C0.85514191 -0.00997513 1.71028381 -0.01995026 2.59133911 -0.03022766 C3.99404053 -0.03122467 3.99404053 -0.03122467 5.42507935 -0.03224182 C6.41235016 -0.04056534 7.39962097 -0.04888885 8.41680908 -0.0574646 C11.68799761 -0.08160563 14.95898691 -0.09034165 18.23025513 -0.09693909 C20.50085512 -0.10590207 22.77145448 -0.11502385 25.04205322 -0.1242981 C29.80515988 -0.14080166 34.56819613 -0.14849075 39.33132935 -0.15138245 C45.43713594 -0.15676855 51.54228167 -0.19445285 57.64790154 -0.24012661 C62.33876975 -0.26985649 67.02947803 -0.27710512 71.72043228 -0.2781086 C73.97152865 -0.28231873 76.22262517 -0.29478458 78.473629 -0.31562614 C81.62200384 -0.34245603 84.76883639 -0.33773952 87.91726685 -0.32521057 C88.84835266 -0.34004486 89.77943848 -0.35487915 90.73873901 -0.37016296 C95.28898229 -0.31855063 97.17746817 -0.21785883 100.85577393 2.68661499 C103.98381727 6.84846324 103.93860967 9.7928767 103.91409302 14.84495544 C103.91423904 15.62553314 103.91438507 16.40611084 103.91453552 17.21034241 C103.91383749 19.79674536 103.9060502 22.38307676 103.89822388 24.96946716 C103.89635931 26.76022807 103.89493559 28.5509895 103.89393616 30.3417511 C103.89011404 35.05999657 103.88028634 39.77821137 103.86923218 44.4964447 C103.85901151 49.30906255 103.85443713 54.12168535 103.84939575 58.93431091 C103.83866381 68.38093899 103.82159103 77.82754428 103.80056763 87.27415466 C105.28728218 87.26416191 105.28728218 87.26416191 106.80403137 87.25396729 C116.14719028 87.19313731 125.49030898 87.14817296 134.83362103 87.11871815 C139.63705897 87.10306602 144.44033697 87.08183597 149.24368286 87.0478363 C153.87967818 87.01522677 158.5155197 86.99729824 163.15162086 86.98952293 C164.91985304 86.98398229 166.68807685 86.97316275 168.45624352 86.95696449 C170.93407722 86.93516888 173.41127644 86.9321886 175.88919067 86.93357849 C176.61927338 86.92279266 177.34935608 86.91200684 178.1015625 86.90089417 C182.51612356 86.92766691 185.30432755 87.53987742 188.80056763 90.27415466 C190.85249493 93.35204562 191.05296349 93.99759528 191.07472229 97.47358704 C191.08469742 98.32872894 191.09467255 99.18387085 191.10494995 100.06492615 C191.10561462 101.00006042 191.1062793 101.9351947 191.10696411 102.89866638 C191.11528763 103.88593719 191.12361115 104.87320801 191.13218689 105.89039612 C191.15632792 109.16158464 191.16506394 112.43257394 191.17166138 115.70384216 C191.18062436 117.97444215 191.18974614 120.24504152 191.19902039 122.51564026 C191.21552395 127.27874692 191.22321304 132.04178317 191.22610474 136.80491638 C191.23149084 142.91072297 191.26917514 149.0158687 191.3148489 155.12148857 C191.34457878 159.81235679 191.35182741 164.50306507 191.35283089 169.19401932 C191.35704102 171.44511569 191.36950687 173.69621221 191.39034843 175.94721603 C191.41717832 179.09559088 191.41246181 182.24242343 191.39993286 185.39085388 C191.4221843 186.7874826 191.4221843 186.7874826 191.44488525 188.21232605 C191.39327292 192.76256932 191.29258112 194.6510552 188.3881073 198.32936096 C184.22625905 201.45740431 181.28184559 201.41219671 176.22976685 201.38768005 C175.0589003 201.38789909 175.0589003 201.38789909 173.86437988 201.38812256 C171.27797693 201.38742453 168.69164553 201.37963723 166.10525513 201.37181091 C164.31449422 201.36994634 162.52373279 201.36852262 160.73297119 201.36752319 C156.01472572 201.36370107 151.29651092 201.35387337 146.57827759 201.34281921 C141.76565974 201.33259855 136.95303695 201.32802417 132.14041138 201.32298279 C122.6937833 201.31225085 113.24717801 201.29517806 103.80056763 201.27415466 C103.81056038 202.76086922 103.81056038 202.76086922 103.820755 204.27761841 C103.88158498 213.62077732 103.92654933 222.96389601 103.95600414 232.30720806 C103.97165627 237.110646 103.99288632 241.913924 104.02688599 246.7172699 C104.05949552 251.35326521 104.07742405 255.98910674 104.08519936 260.6252079 C104.09074 262.39344008 104.10155954 264.16166389 104.1177578 265.92983055 C104.13955341 268.40766426 104.14253369 270.88486347 104.1411438 273.36277771 C104.15192963 274.09286041 104.16271545 274.82294312 104.17382812 275.57514954 C104.14705538 279.9897106 103.53484487 282.77791458 100.80056763 286.27415466 C97.72267667 288.32608197 97.07712701 288.52655053 93.60113525 288.54830933 C92.74599335 288.55828445 91.89085144 288.56825958 91.00979614 288.57853699 C90.07466187 288.57920166 89.13952759 288.57986633 88.17605591 288.58055115 C87.1887851 288.58887466 86.20151428 288.59719818 85.18432617 288.60577393 C81.91313765 288.62991495 78.64214835 288.63865098 75.37088013 288.64524841 C73.10028014 288.65421139 70.82968077 288.66333317 68.55908203 288.67260742 C63.79597537 288.68911098 59.03293912 288.69680007 54.26980591 288.69969177 C48.16399932 288.70507787 42.05885359 288.74276218 35.95323372 288.78843594 C31.2623655 288.81816582 26.57165722 288.82541445 21.88070297 288.82641792 C19.6296066 288.83062805 17.37851008 288.8430939 15.12750626 288.86393547 C11.97913141 288.89076536 8.83229886 288.88604885 5.68386841 288.8735199 C4.28723969 288.89577133 4.28723969 288.89577133 2.86239624 288.91847229 C-1.68784703 288.86685996 -3.57633291 288.76616816 -7.25463867 285.86169434 C-10.38268202 281.69984609 -10.33747442 278.75543262 -10.31295776 273.70335388 C-10.31310379 272.92277618 -10.31324982 272.14219849 -10.31340027 271.33796692 C-10.31270224 268.75156397 -10.30491494 266.16523257 -10.29708862 263.57884216 C-10.29522405 261.78808125 -10.29380033 259.99731983 -10.2928009 258.20655823 C-10.28897878 253.48831275 -10.27915108 248.77009796 -10.26809692 244.05186462 C-10.25787626 239.23924678 -10.25330188 234.42662398 -10.2482605 229.61399841 C-10.23752856 220.16737034 -10.22045577 210.72076505 -10.19943237 201.27415466 C-11.19057541 201.2808165 -12.18171844 201.28747833 -13.20289612 201.29434204 C-22.54605503 201.35517201 -31.88917372 201.40013637 -41.23248577 201.42959118 C-46.03592371 201.4452433 -50.83920171 201.46647336 -55.64254761 201.50047302 C-60.27854292 201.53308255 -64.91438445 201.55101109 -69.55048561 201.55878639 C-71.31871779 201.56432703 -73.0869416 201.57514657 -74.85510826 201.59134483 C-77.33294197 201.61314044 -79.81014118 201.61612072 -82.28805542 201.61473083 C-83.01813812 201.62551666 -83.74822083 201.63630249 -84.50042725 201.64741516 C-88.91498831 201.62064241 -91.70319229 201.0084319 -95.19943237 198.27415466 C-97.25135968 195.1962637 -97.45182824 194.55071404 -97.47358704 191.07472229 C-97.48356216 190.21958038 -97.49353729 189.36443848 -97.5038147 188.48338318 C-97.50447937 187.5482489 -97.50514404 186.61311462 -97.50582886 185.64964294 C-97.51415237 184.66237213 -97.52247589 183.67510132 -97.53105164 182.65791321 C-97.55519266 179.38672468 -97.56392868 176.11573538 -97.57052612 172.84446716 C-97.5794891 170.57386717 -97.58861088 168.30326781 -97.59788513 166.03266907 C-97.61438869 161.26956241 -97.62207778 156.50652616 -97.62496948 151.74339294 C-97.63035558 145.63758635 -97.66803989 139.53244062 -97.71371365 133.42682076 C-97.74344353 128.73595254 -97.75069216 124.04524426 -97.75169563 119.35429001 C-97.75590576 117.10319364 -97.76837161 114.85209712 -97.78921318 112.60109329 C-97.81604307 109.45271845 -97.81132656 106.3058859 -97.79879761 103.15745544 C-97.8136319 102.22636963 -97.82846619 101.29528381 -97.84375 100.33598328 C-97.79213767 95.78574 -97.69144587 93.89725412 -94.78697205 90.21894836 C-90.6251238 87.09090502 -87.68071033 87.13611262 -82.62863159 87.16062927 C-81.45776505 87.16041023 -81.45776505 87.16041023 -80.26324463 87.16018677 C-77.67684168 87.1608848 -75.09051028 87.16867209 -72.50411987 87.17649841 C-70.71335896 87.17836298 -68.92259754 87.1797867 -67.13183594 87.18078613 C-62.41359046 87.18460825 -57.69537567 87.19443595 -52.97714233 87.20549011 C-48.16452449 87.21571078 -43.35190169 87.22028516 -38.53927612 87.22532654 C-29.09264805 87.23605848 -19.64604276 87.25313126 -10.19943237 87.27415466 C-10.20942513 85.78744011 -10.20942513 85.78744011 -10.21961975 84.27069092 C-10.28044972 74.92753201 -10.32541408 65.58441331 -10.35486889 56.24110126 C-10.37052101 51.43766332 -10.39175107 46.63438532 -10.42575073 41.83103943 C-10.45836026 37.19504411 -10.4762888 32.55920259 -10.4840641 27.92310143 C-10.48960474 26.15486925 -10.50042428 24.38664544 -10.51662254 22.61847878 C-10.53841815 20.14064507 -10.54139843 17.66344585 -10.54000854 15.18553162 C-10.55079437 14.45544891 -10.5615802 13.72536621 -10.57269287 12.97315979 C-10.54592012 8.55859873 -9.93370961 5.77039474 -7.19943237 2.27415466 C-4.12154141 0.22222736 -3.47599175 0.0217588 0 0 Z " fill="#309896" transform="translate(209.19943237304688,111.72584533691406)"/>
<path d="M0 0 C0.94488785 -0.00705963 1.8897757 -0.01411926 2.86329651 -0.02139282 C41.96677384 -0.24733053 41.96677384 -0.24733053 58.76953125 3.203125 C60.28836914 3.50114014 60.28836914 3.50114014 61.83789062 3.80517578 C107.72863491 12.98194984 152.16580077 34.03366028 186.10546875 66.65625 C188.23025675 68.68757226 190.37342565 70.59221909 192.64453125 72.453125 C195.70527401 75.03492513 198.26008041 77.91922856 200.84375 80.97265625 C202.18350837 82.5243845 203.56490187 84.04072769 204.9765625 85.52734375 C217.60445544 98.84885278 227.66624165 114.32093498 236.76953125 130.203125 C237.19862793 130.95142578 237.62772461 131.69972656 238.06982422 132.47070312 C250.7662684 154.91182446 259.14680626 179.22942738 264.51953125 204.390625 C264.81778809 205.77785767 264.81778809 205.77785767 265.12207031 207.19311523 C268.41394507 223.3998108 269.14483399 239.33350461 269.08203125 255.828125 C269.0798761 256.84636353 269.07772095 257.86460205 269.07550049 258.91369629 C269.02580521 273.53559924 268.72014367 287.83446432 265.76953125 302.203125 C265.47151611 303.72196289 265.47151611 303.72196289 265.16748047 305.27148438 C257.79942663 342.11727272 243.01180395 376.86234183 220.76953125 407.203125 C220.34816895 407.78143066 219.92680664 408.35973633 219.49267578 408.95556641 C214.17873043 416.19921468 208.46677715 422.91314006 202.3125 429.44921875 C200.52322165 431.3869165 198.83300084 433.31456521 197.16796875 435.3515625 C195.25655729 437.62408752 193.47141354 439.50110689 191.20703125 441.390625 C188.81386585 443.41970958 186.48971987 445.47008134 184.21875 447.63671875 C170.63536095 460.58133155 155.01115426 470.89381705 138.76953125 480.203125 C138.02123047 480.63222168 137.27292969 481.06131836 136.50195312 481.50341797 C114.06083179 494.19986215 89.74322887 502.58040001 64.58203125 507.953125 C63.65720947 508.15196289 62.7323877 508.35080078 61.77954102 508.55566406 C45.57284545 511.84753882 29.63915164 512.57842774 13.14453125 512.515625 C11.61717346 512.51239227 11.61717346 512.51239227 10.05895996 512.50909424 C-4.56294299 512.45939896 -18.86180807 512.15373742 -33.23046875 509.203125 C-34.24302734 509.00444824 -35.25558594 508.80577148 -36.29882812 508.60107422 C-73.14461647 501.23302038 -107.88968558 486.4453977 -138.23046875 464.203125 C-138.80877441 463.7817627 -139.38708008 463.36040039 -139.98291016 462.92626953 C-147.25885775 457.58862937 -154.00403906 451.83841177 -160.578125 445.66796875 C-162.68757939 443.70763632 -164.81992817 441.84257817 -167.04296875 440.015625 C-170.12279949 437.40961438 -172.70149205 434.51009746 -175.3046875 431.43359375 C-176.64444587 429.8818655 -178.02583937 428.36552231 -179.4375 426.87890625 C-210.19643573 394.43046516 -229.72691032 351.35129033 -238.98046875 308.015625 C-239.17930664 307.09080322 -239.37814453 306.16598145 -239.58300781 305.21313477 C-242.87488257 289.0064392 -243.60577149 273.07274539 -243.54296875 256.578125 C-243.5408136 255.55988647 -243.53865845 254.54164795 -243.53643799 253.49255371 C-243.48674271 238.87065076 -243.18108117 224.57178568 -240.23046875 210.203125 C-240.03179199 209.19056641 -239.83311523 208.17800781 -239.62841797 207.13476562 C-230.43351083 161.15334236 -209.40413672 117.14906588 -176.9140625 83.0390625 C-174.68929883 80.6880022 -172.56825862 78.29938648 -170.48046875 75.828125 C-167.66994432 72.5841703 -164.63199308 69.79110768 -161.35546875 67.0234375 C-159.92981854 65.80220037 -158.5335819 64.545834 -157.16796875 63.2578125 C-116.39213167 24.88888247 -56.07221177 0.27991109 0 0 Z M-62.23046875 42.203125 C-63.01518555 42.48494629 -63.79990234 42.76676758 -64.60839844 43.05712891 C-99.89888866 55.91650069 -134.32075932 77.79863762 -158.23046875 107.203125 C-159.20236661 108.35220438 -160.17511066 109.50056828 -161.1484375 110.6484375 C-185.23047471 139.31667298 -200.92776961 172.80108521 -209.23046875 209.203125 C-209.48352783 210.29923096 -209.48352783 210.29923096 -209.74169922 211.41748047 C-222.1955744 267.19850806 -209.57595116 327.99364267 -179.921875 376.33642578 C-168.09831019 394.82170978 -153.36895215 413.37985774 -136.23046875 427.203125 C-135.13264827 428.11308315 -134.03500981 429.02326093 -132.9375 429.93359375 C-87.25303416 467.48884973 -28.30359077 487.60128647 31.01318359 482.48486328 C47.22432671 480.82785184 63.19364972 478.01312776 78.76953125 473.203125 C79.54361328 472.96787109 80.31769531 472.73261719 81.11523438 472.49023438 C113.08623391 462.58262291 141.74437536 445.58353855 166.05078125 422.7109375 C167.976542 420.93458922 169.89540419 419.25358808 171.91796875 417.59765625 C174.15074711 415.72273415 176.02537738 413.97694639 177.89453125 411.765625 C180.05395054 409.21703564 182.22449984 406.6880671 184.4609375 404.20703125 C223.17871033 360.82384712 242.64146035 300.79442859 239.44726562 243.01538086 C235.78778615 191.6268387 215.95272333 142.52896773 180.921875 104.54296875 C178.80236511 102.23881916 176.75517783 99.88317066 174.70703125 97.515625 C171.00468299 93.35592784 167.02756633 89.77929416 162.76953125 86.203125 C161.40248047 84.98689453 161.40248047 84.98689453 160.0078125 83.74609375 C131.6946805 58.73874076 96.36555723 42.61314238 59.76953125 34.203125 C58.7650293 33.97133545 58.7650293 33.97133545 57.74023438 33.73486328 C18.58413205 25.04111329 -24.66200136 28.52512952 -62.23046875 42.203125 Z " fill="#309997" transform="translate(243.23046875,-0.203125)"/>
</svg>
